<svg width="2441" height="229" viewBox="0 0 2441 229" fill="none" xmlns="http://www.w3.org/2000/svg">
<path d="M724.265 87.012H796.146V94.6034H724.265V165.576H809.985V173.167H715.724V11.9277H809.985V19.5192H724.265V87.0515V87.012Z" fill="#FF3151"/>
<path d="M839.916 57.9896H847.744V67.2022C855.573 63.0506 862.769 60.1247 869.293 58.4641C875.817 56.7639 882.538 55.9336 889.458 55.9336C899.461 55.9336 907.013 57.6338 912.153 60.9946C917.293 64.3949 920.891 70.128 922.987 78.273C925.043 86.418 926.11 98.1611 926.11 113.542V173.206H918.281V113.542C918.281 100.336 917.57 90.1742 916.107 83.1363C914.644 76.0589 911.955 70.9979 908.041 67.9139C904.127 64.8298 898.393 63.2878 890.881 63.2878C883.962 63.2878 876.924 64.1972 869.807 66.0555C862.65 67.9139 857.234 69.8117 853.556 71.8282L848.021 74.8332V173.245H839.955V57.9896H839.916Z" fill="#FF3151"/>
<path d="M966.914 161.582C959.995 152.449 956.555 138.175 956.555 118.841C956.555 97.3317 960.272 81.4766 967.745 71.2361C975.178 61.0351 987 55.895 1003.13 55.895C1017.88 55.895 1028.79 60.3629 1035.87 69.2591C1042.95 78.1554 1046.47 92.1521 1046.47 111.21V118.801H964.898C964.74 130.94 965.886 140.508 968.338 147.507C970.789 154.505 974.941 159.645 980.792 162.966C986.644 166.287 994.868 167.909 1005.46 167.909C1009.46 167.909 1014.16 167.75 1019.62 167.434C1025.08 167.118 1030.26 166.801 1035.16 166.525L1042.08 165.853L1042.55 173.444C1023.81 174.67 1010.6 175.302 1002.93 175.302C985.893 175.302 973.913 170.716 966.993 161.582H966.914ZM1037.89 111.447C1037.89 94.4058 1035.12 82.1093 1029.58 74.5969C1024.05 67.0845 1015.31 63.2888 1003.33 63.2888C990.559 63.2888 980.99 67.2031 974.506 75.0318C968.061 82.8605 964.74 94.9989 964.582 111.447H1037.85H1037.89Z" fill="#FF3151"/>
<path d="M1076.83 57.9905H1084.66V75.9807C1098.03 65.9774 1113.33 59.2558 1130.53 55.6973V64.0004C1124.08 65.2261 1116.81 67.5194 1108.74 70.9197C1100.67 74.3201 1094.94 77.2855 1091.58 79.895L1084.9 83.8094V173.207H1076.83V57.9905Z" fill="#FF3151"/>
<path d="M1161.6 224.37C1155.32 221.919 1151.01 218.241 1148.71 213.299C1146.42 208.396 1145.27 201.635 1145.27 193.016C1145.27 187.48 1145.87 183.131 1147.01 180.007C1148.16 176.884 1149.86 174.235 1152.07 172.179C1154.29 170.123 1158.4 166.762 1164.41 162.136C1162.71 161.068 1161.45 159.17 1160.61 156.482C1159.78 153.793 1159.35 150.986 1159.35 148.06C1159.35 146.202 1159.78 144.146 1160.61 141.852C1161.45 139.559 1163.42 135.328 1166.51 129.16C1153.3 125.325 1146.7 113.661 1146.7 94.129C1146.7 81.0812 1149.86 71.3942 1156.15 65.1075C1162.43 58.8208 1172.75 55.6577 1187.03 55.6577C1194.54 55.6577 1202.37 56.6462 1210.51 58.6627L1242.78 57.9905V66.0564L1217.67 66.2937C1220.75 68.4288 1223.09 71.9477 1224.71 76.7715C1226.33 81.5952 1227.12 87.4865 1227.12 94.4058C1227.12 107.928 1223.8 117.576 1217.19 123.309C1210.59 129.081 1200 131.968 1185.41 131.968C1180.5 131.968 1176.27 131.651 1172.71 131.058L1170.86 135.684C1169.79 138.294 1168.92 140.587 1168.32 142.604C1167.69 144.62 1167.42 146.518 1167.42 148.376C1167.42 153.002 1169.08 156.047 1172.36 157.589C1175.68 159.131 1180.54 159.882 1186.99 159.882L1202.88 159.645C1211.18 159.645 1217.95 160.475 1223.17 162.175C1228.38 163.876 1232.42 166.96 1235.26 171.507C1238.11 176.053 1239.53 182.617 1239.53 191.197C1239.53 199.777 1237.99 206.736 1234.91 212.034C1231.82 217.332 1226.64 221.325 1219.37 224.014C1212.05 226.703 1202.05 228.047 1189.28 228.047C1176.51 228.047 1167.93 226.821 1161.64 224.37H1161.6ZM1214.86 218.044C1220.71 216.106 1224.9 212.983 1227.44 208.594C1229.97 204.205 1231.23 198.195 1231.23 190.485C1231.23 184.04 1230.44 179.177 1228.82 175.974C1227.2 172.772 1224.11 170.439 1219.49 169.055C1214.86 167.671 1207.82 167.078 1198.3 167.197L1170.66 166.287C1165.6 169.648 1161.92 172.455 1159.59 174.709C1157.29 176.923 1155.67 179.335 1154.76 181.984C1153.85 184.594 1153.38 188.113 1153.38 192.581C1153.38 199.935 1154.49 205.668 1156.74 209.741C1158.95 213.813 1162.71 216.699 1167.93 218.4C1173.15 220.1 1180.66 220.93 1190.51 220.93C1200.94 220.93 1209.09 219.981 1214.94 218.044H1214.86ZM1211.38 117.813C1216.13 113.266 1218.54 105.239 1218.54 93.7336C1218.54 82.2278 1216.21 74.3991 1211.5 69.8917C1206.8 65.3447 1198.73 63.091 1187.18 63.091C1175.64 63.091 1166.98 65.4238 1162.08 70.1289C1157.17 74.8341 1154.68 82.8604 1154.68 94.2081C1154.68 105.556 1157.1 113.503 1161.96 117.931C1166.78 122.399 1175.05 124.613 1186.75 124.613C1198.45 124.613 1206.64 122.36 1211.42 117.813H1211.38Z" fill="#FF3151"/>
<path d="M1303.79 173.206H1289.95L1254.24 57.9897H1262.78L1296.91 165.852H1305.88L1340.44 57.9897H1348.98L1296 226.228H1287.46L1303.82 173.245L1303.79 173.206Z" fill="#FF3151"/>
<path d="M1424.77 57.9905H1432.6V75.9807C1445.97 65.9774 1461.27 59.2558 1478.47 55.6973V64.0004C1472.02 65.2261 1464.75 67.5194 1456.68 70.9197C1448.62 74.3201 1442.88 77.2855 1439.52 79.895L1432.84 83.8094V173.207H1424.77V57.9905Z" fill="#FF3151"/>
<path d="M1502.43 161.582C1495.51 152.449 1492.07 138.175 1492.07 118.841C1492.07 97.3317 1495.79 81.4766 1503.26 71.2361C1510.69 61.0351 1522.51 55.895 1538.65 55.895C1553.39 55.895 1564.31 60.3629 1571.38 69.2591C1578.46 78.1554 1581.98 92.1521 1581.98 111.21V118.801H1500.41C1500.25 130.94 1501.4 140.508 1503.85 147.507C1506.3 154.505 1510.46 159.645 1516.31 162.966C1522.16 166.287 1530.38 167.909 1540.98 167.909C1544.97 167.909 1549.68 167.75 1555.13 167.434C1560.59 167.118 1565.77 166.801 1570.67 166.525L1577.59 165.853L1578.07 173.444C1559.33 174.67 1546.12 175.302 1538.45 175.302C1521.41 175.302 1509.43 170.716 1502.51 161.582H1502.43ZM1573.4 111.447C1573.4 94.4058 1570.63 82.1093 1565.1 74.5969C1559.56 67.0845 1550.82 63.2888 1538.84 63.2888C1526.07 63.2888 1516.51 67.2031 1510.02 75.0318C1503.58 82.8605 1500.25 94.9989 1500.1 111.447H1573.36H1573.4Z" fill="#FF3151"/>
<path d="M1612.11 11.9277H1619.94V24.6197H1612.11V11.9277ZM1612.35 57.9905H1620.17V173.207H1612.35V57.9905Z" fill="#FF3151"/>
<path d="M1656.35 57.9906H1664.18V67.2031C1676.48 59.6907 1689.45 55.895 1703.13 55.895C1717.88 55.895 1727.8 60.0466 1732.86 68.3498C1737.33 65.2657 1743.85 62.4189 1752.43 59.8094C1761.05 57.1998 1769.87 55.895 1778.92 55.895C1787.98 55.895 1795.21 57.7533 1800.12 61.4305C1805.02 65.1076 1808.46 71.0384 1810.36 79.1834C1812.29 87.3284 1813.24 98.7551 1813.24 113.503V173.167H1805.18V113.503C1805.18 99.8227 1804.47 89.503 1803 82.5047C1801.54 75.5063 1798.85 70.5639 1794.94 67.6381C1791.02 64.7122 1785.13 63.2492 1777.3 63.2492C1769.91 63.2492 1762.71 64.1586 1755.63 66.017C1748.56 67.8753 1743.58 69.7731 1740.65 71.7896L1735.59 74.5574C1738.51 75.19 1739.98 88.0006 1739.98 113.029V173.167H1731.91V113.503C1731.91 100.297 1731.2 90.1357 1729.74 83.0977C1728.27 76.0203 1725.62 70.9593 1721.79 67.8753C1717.95 64.7913 1712.26 63.2492 1704.75 63.2492C1697.99 63.2492 1691.19 64.1191 1684.35 65.8983C1677.51 67.6776 1672.48 69.615 1669.24 71.7896L1664.42 74.7946V173.207H1656.35V57.9906Z" fill="#FF3151"/>
<path d="M1849.1 166.524C1843.81 160.672 1841.16 152.606 1841.16 142.326C1841.16 132.046 1843.73 124.178 1848.87 118.721C1854.01 113.265 1862.11 109.785 1873.18 108.243L1916.95 103.855V92.1116C1916.95 82.5828 1914.94 75.4658 1910.94 70.8002C1906.95 66.1346 1901.49 63.7623 1894.57 63.7623C1887.66 63.7623 1881.84 63.9995 1876.7 64.4344C1871.56 64.9089 1861.92 65.9765 1847.8 67.6766L1847.13 60.0852C1863.1 57.3175 1877.61 55.9336 1890.7 55.9336C1902.52 55.9336 1911.26 58.899 1916.87 64.7903C1922.49 70.7211 1925.3 79.8151 1925.3 92.1116V158.458C1925.45 160.751 1927.08 162.807 1930.12 164.547C1933.2 166.326 1937.28 167.512 1942.34 168.105L1941.86 175.262C1936.8 175.262 1932.06 174.352 1927.71 172.494C1923.32 170.636 1920.16 168.184 1918.14 165.14C1902.76 171.901 1887.26 175.262 1871.6 175.262C1861.92 175.262 1854.44 172.336 1849.14 166.524H1849.1ZM1910.55 160.751L1916.99 158.221V111.446L1874.13 115.598C1865.67 116.23 1859.58 118.563 1855.83 122.636C1852.07 126.708 1850.17 132.797 1850.17 140.942C1850.17 158.774 1857.41 167.67 1871.84 167.67C1885.2 167.67 1898.09 165.377 1910.55 160.751Z" fill="#FF3151"/>
<path d="M1974.13 224.37C1967.84 221.919 1963.53 218.241 1961.24 213.299C1958.94 208.396 1957.8 201.635 1957.8 193.016C1957.8 187.48 1958.39 183.131 1959.54 180.007C1960.68 176.884 1962.38 174.235 1964.6 172.179C1966.81 170.123 1970.92 166.762 1976.93 162.136C1975.23 161.068 1973.97 159.17 1973.14 156.482C1972.31 153.793 1971.87 150.986 1971.87 148.06C1971.87 146.202 1972.31 144.146 1973.14 141.852C1973.97 139.559 1975.95 135.328 1979.03 129.16C1965.82 125.325 1959.22 113.661 1959.22 94.129C1959.22 81.0812 1962.38 71.3942 1968.67 65.1075C1974.96 58.8208 1985.28 55.6577 1999.55 55.6577C2007.06 55.6577 2014.89 56.6462 2023.04 58.6627L2055.3 57.9905V66.0564L2030.19 66.2937C2033.28 68.4288 2035.61 71.9477 2037.23 76.7715C2038.85 81.5952 2039.64 87.4865 2039.64 94.4058C2039.64 107.928 2036.32 117.576 2029.72 123.309C2023.12 129.081 2012.52 131.968 1997.93 131.968C1993.03 131.968 1988.8 131.651 1985.24 131.058L1983.38 135.684C1982.31 138.294 1981.44 140.587 1980.85 142.604C1980.22 144.62 1979.94 146.518 1979.94 148.376C1979.94 153.002 1981.6 156.047 1984.88 157.589C1988.2 159.131 1993.07 159.882 1999.51 159.882L2015.41 159.645C2023.71 159.645 2030.47 160.475 2035.69 162.175C2040.91 163.876 2044.94 166.96 2047.79 171.507C2050.63 176.053 2052.06 182.617 2052.06 191.197C2052.06 199.777 2050.52 206.736 2047.43 212.034C2044.35 217.332 2039.17 221.325 2031.89 224.014C2024.58 226.703 2014.57 228.047 2001.8 228.047C1989.03 228.047 1980.45 226.821 1974.17 224.37H1974.13ZM2027.35 218.044C2033.2 216.106 2037.39 212.983 2039.92 208.594C2042.45 204.205 2043.71 198.195 2043.71 190.485C2043.71 184.04 2042.92 179.177 2041.3 175.974C2039.68 172.772 2036.6 170.439 2031.97 169.055C2027.35 167.671 2020.31 167.078 2010.78 167.197L1983.14 166.287C1978.08 169.648 1974.4 172.455 1972.07 174.709C1969.78 176.923 1968.16 179.335 1967.25 181.984C1966.34 184.594 1965.86 188.113 1965.86 192.581C1965.86 199.935 1966.97 205.668 1969.22 209.741C1971.44 213.813 1975.19 216.699 1980.41 218.4C1985.63 220.1 1993.14 220.93 2002.99 220.93C2013.43 220.93 2021.57 219.981 2027.42 218.044H2027.35ZM2023.91 117.813C2028.65 113.266 2031.06 105.239 2031.06 93.7336C2031.06 82.2278 2028.73 74.3991 2024.02 69.8917C2019.32 65.3447 2011.25 63.091 1999.71 63.091C1988.16 63.091 1979.5 65.4238 1974.6 70.1289C1969.7 74.8341 1967.21 82.8604 1967.21 94.2081C1967.21 105.556 1969.62 113.503 1974.48 117.931C1979.31 122.399 1987.57 124.613 1999.27 124.613C2010.98 124.613 2019.16 122.36 2023.95 117.813H2023.91Z" fill="#FF3151"/>
<path d="M2077.6 11.9277H2085.43V24.6197H2077.6V11.9277ZM2077.84 57.9905H2085.67V173.207H2077.84V57.9905Z" fill="#FF3151"/>
<path d="M2121.84 57.9896H2129.67V67.2022C2137.5 63.0506 2144.7 60.1247 2151.22 58.4641C2157.75 56.7639 2164.47 55.9336 2171.39 55.9336C2181.39 55.9336 2188.94 57.6338 2194.08 60.9946C2199.22 64.3949 2202.82 70.128 2204.92 78.273C2206.97 86.418 2208.04 98.1611 2208.04 113.542V173.206H2200.21V113.542C2200.21 100.336 2199.5 90.1742 2198.04 83.1363C2196.57 76.0589 2193.88 70.9979 2189.97 67.9139C2186.06 64.8298 2180.32 63.2878 2172.81 63.2878C2165.89 63.2878 2158.85 64.1972 2151.74 66.0555C2144.58 67.9139 2139.16 69.8117 2135.49 71.8282L2129.95 74.8332V173.245H2121.88V57.9896H2121.84Z" fill="#FF3151"/>
<path d="M2248.8 161.582C2241.88 152.449 2238.44 138.175 2238.44 118.841C2238.44 97.3317 2242.16 81.4766 2249.63 71.2361C2257.07 61.0351 2268.89 55.895 2285.02 55.895C2299.77 55.895 2310.68 60.3629 2317.76 69.2591C2324.84 78.1554 2328.35 92.1521 2328.35 111.21V118.801H2246.79C2246.63 130.94 2247.77 140.508 2250.23 147.507C2252.68 154.505 2256.83 159.645 2262.68 162.966C2268.53 166.287 2276.76 167.909 2287.35 167.909C2291.35 167.909 2296.05 167.75 2301.51 167.434C2306.96 167.118 2312.14 166.801 2317.05 166.525L2323.97 165.853L2324.44 173.444C2305.7 174.67 2292.49 175.302 2284.82 175.302C2267.78 175.302 2255.8 170.716 2248.88 161.582H2248.8ZM2319.78 111.447C2319.78 94.4058 2317.01 82.1093 2311.47 74.5969C2305.94 67.0845 2297.2 63.2888 2285.22 63.2888C2272.45 63.2888 2262.88 67.2031 2256.39 75.0318C2249.95 82.8605 2246.63 94.9989 2246.47 111.447H2319.74H2319.78Z" fill="#FF3151"/>
<path d="M2362.87 161.345C2356.86 152.053 2353.9 137.582 2353.9 117.892C2353.9 102.986 2355.56 91.0448 2358.84 82.0695C2362.16 73.0942 2367.5 66.4912 2374.85 62.2605C2382.25 58.0299 2392.13 55.9343 2404.59 55.9343C2409.21 55.9343 2414.12 56.2111 2419.33 56.7251C2424.55 57.2786 2429.1 57.9903 2432.94 58.8997V5.0083H2440.76V173.246H2432.94V163.322C2420.8 171.309 2407.51 175.302 2393.08 175.302C2378.65 175.302 2368.88 170.676 2362.91 161.345H2362.87ZM2412.53 164.903C2419.22 162.926 2424.16 160.91 2427.4 158.893L2432.94 155.888V66.254C2421.71 64.1189 2411.82 63.0118 2403.2 63.0118C2392.92 63.0118 2384.82 64.9096 2378.89 68.6658C2372.96 72.422 2368.76 78.1156 2366.31 85.7071C2363.86 93.2985 2362.64 103.42 2362.64 115.994C2362.64 133.193 2364.93 146.162 2369.56 154.821C2374.18 163.519 2382.17 167.829 2393.52 167.829C2399.53 167.829 2405.85 166.841 2412.53 164.824V164.903Z" fill="#FF3151"/>
<path d="M91.9982 16.1585C96.1908 16.1585 99.5897 12.7597 99.5897 8.56704C99.5897 4.3744 96.1908 0.975586 91.9982 0.975586C87.8055 0.975586 84.4067 4.3744 84.4067 8.56704C84.4067 12.7597 87.8055 16.1585 91.9982 16.1585Z" fill="#FF3151"/>
<path d="M91.9982 183.289C96.1908 183.289 99.5897 179.891 99.5897 175.698C99.5897 171.505 96.1908 168.106 91.9982 168.106C87.8055 168.106 84.4067 171.505 84.4067 175.698C84.4067 179.891 87.8055 183.289 91.9982 183.289Z" fill="#FF3151"/>
<path d="M19.6432 141.496C23.8359 141.496 27.2347 138.098 27.2347 133.905C27.2347 129.712 23.8359 126.313 19.6432 126.313C15.4506 126.313 12.0518 129.712 12.0518 133.905C12.0518 138.098 15.4506 141.496 19.6432 141.496Z" fill="#FF3151"/>
<path d="M164.394 57.9515C168.587 57.9515 171.986 54.5527 171.986 50.36C171.986 46.1674 168.587 42.7686 164.394 42.7686C160.202 42.7686 156.803 46.1674 156.803 50.36C156.803 54.5527 160.202 57.9515 164.394 57.9515Z" fill="#FF3151"/>
<path d="M19.6432 57.9515C23.8359 57.9515 27.2347 54.5527 27.2347 50.36C27.2347 46.1674 23.8359 42.7686 19.6432 42.7686C15.4506 42.7686 12.0518 46.1674 12.0518 50.36C12.0518 54.5527 15.4506 57.9515 19.6432 57.9515Z" fill="#FF3151"/>
<path d="M164.394 141.496C168.587 141.496 171.986 138.098 171.986 133.905C171.986 129.712 168.587 126.313 164.394 126.313C160.202 126.313 156.803 129.712 156.803 133.905C156.803 138.098 160.202 141.496 164.394 141.496Z" fill="#FF3151"/>
<path d="M91.9984 152.884C102.065 152.884 110.226 144.723 110.226 134.656C110.226 124.59 102.065 116.429 91.9984 116.429C81.9317 116.429 73.771 124.59 73.771 134.656C73.771 144.723 81.9317 152.884 91.9984 152.884Z" fill="#FF3151"/>
<path d="M92.1175 67.7568C102.184 67.7568 110.345 59.5961 110.345 49.5294C110.345 39.4627 102.184 31.302 92.1175 31.302C82.0508 31.302 73.8901 39.4627 73.8901 49.5294C73.8901 59.5961 82.0508 67.7568 92.1175 67.7568Z" fill="#FF3151"/>
<path d="M50.9974 86.8144C61.0641 86.8144 69.2248 78.6537 69.2248 68.587C69.2248 58.5203 61.0641 50.3596 50.9974 50.3596C40.9307 50.3596 32.77 58.5203 32.77 68.587C32.77 78.6537 40.9307 86.8144 50.9974 86.8144Z" fill="#FF3151"/>
<path d="M133.04 134.024C143.107 134.024 151.268 125.863 151.268 115.796C151.268 105.73 143.107 97.5688 133.04 97.5688C122.974 97.5688 114.813 105.73 114.813 115.796C114.813 125.863 122.974 134.024 133.04 134.024Z" fill="#FF3151"/>
<path d="M133.04 86.6958C143.107 86.6958 151.268 78.5351 151.268 68.4684C151.268 58.4017 143.107 50.241 133.04 50.241C122.974 50.241 114.813 58.4017 114.813 68.4684C114.813 78.5351 122.974 86.6958 133.04 86.6958Z" fill="#FF3151"/>
<path d="M50.9974 133.905C61.0641 133.905 69.2248 125.744 69.2248 115.678C69.2248 105.611 61.0641 97.4502 50.9974 97.4502C40.9307 97.4502 32.77 105.611 32.77 115.678C32.77 125.744 40.9307 133.905 50.9974 133.905Z" fill="#FF3151"/>
<path d="M91.9993 105.833C99.5548 105.833 105.68 99.7081 105.68 92.1526C105.68 84.5971 99.5548 78.4722 91.9993 78.4722C84.4438 78.4722 78.3188 84.5971 78.3188 92.1526C78.3188 99.7081 84.4438 105.833 91.9993 105.833Z" fill="#FF3151"/>
<path d="M167.992 107.335C176.377 107.335 183.175 100.538 183.175 92.1524C183.175 83.7671 176.377 76.9695 167.992 76.9695C159.607 76.9695 152.809 83.7671 152.809 92.1524C152.809 100.538 159.607 107.335 167.992 107.335Z" fill="#FF3151"/>
<path d="M16.0447 107.335C24.43 107.335 31.2276 100.538 31.2276 92.1524C31.2276 83.7671 24.43 76.9695 16.0447 76.9695C7.65944 76.9695 0.861816 83.7671 0.861816 92.1524C0.861816 100.538 7.65944 107.335 16.0447 107.335Z" fill="#FF3151"/>
<path d="M54.0418 173.128C62.4271 173.128 69.2247 166.331 69.2247 157.945C69.2247 149.56 62.4271 142.762 54.0418 142.762C45.6565 142.762 38.8589 149.56 38.8589 157.945C38.8589 166.331 45.6565 173.128 54.0418 173.128Z" fill="#FF3151"/>
<path d="M130.035 41.5428C138.421 41.5428 145.218 34.7452 145.218 26.3599C145.218 17.9746 138.421 11.177 130.035 11.177C121.65 11.177 114.853 17.9746 114.853 26.3599C114.853 34.7452 121.65 41.5428 130.035 41.5428Z" fill="#FF3151"/>
<path d="M129.996 173.128C138.381 173.128 145.179 166.331 145.179 157.945C145.179 149.56 138.381 142.762 129.996 142.762C121.611 142.762 114.813 149.56 114.813 157.945C114.813 166.331 121.611 173.128 129.996 173.128Z" fill="#FF3151"/>
<path d="M54.0418 41.5428C62.4271 41.5428 69.2247 34.7452 69.2247 26.3599C69.2247 17.9746 62.4271 11.177 54.0418 11.177C45.6565 11.177 38.8589 17.9746 38.8589 26.3599C38.8589 34.7452 45.6565 41.5428 54.0418 41.5428Z" fill="#FF3151"/>
<path d="M458.246 34.4254C467.483 34.4254 474.971 26.9374 474.971 17.7005C474.971 8.46359 467.483 0.975586 458.246 0.975586C449.01 0.975586 441.521 8.46359 441.521 17.7005C441.521 26.9374 449.01 34.4254 458.246 34.4254Z" fill="#FF3151"/>
<path d="M314.997 173.444L271.03 96.7786L243.116 129.517V173.484H213.58V11.1375H243.116V85.9845L307.92 11.1375H343.861L291.669 72.5017L349.831 173.444H315.037H314.997Z" fill="#FF3151"/>
<path d="M401.469 174.986C381.897 174.986 368.81 165.537 368.81 142.762V11.0188H397.792V137.938C397.792 144.858 399.413 149.444 409.297 149.444C411.828 149.444 412.5 149.207 414.121 149.207V173.365C408.348 174.512 407.202 174.986 401.469 174.986Z" fill="#FF3151"/>
<path d="M443.736 173.444V54.1553H472.797V173.444H443.736Z" fill="#FF3151"/>
<path d="M619.842 54.1557H583.901L538.59 102.709V11.1375H509.963V173.444H538.59V142.09L557.568 121.49L590.978 173.444H624.191L577.021 100.416L619.842 54.1557Z" fill="#FF3151"/>
</svg>
